<svg width="345" height="416" viewBox="0 0 345 416" fill="none" xmlns="http://www.w3.org/2000/svg">
<path d="M111.179 1.42536C80.5692 3.58158 47.65 7.89401 25.1908 30.0311C11.4707 43.5434 3.27488 62.6619 0.829722 82.3074C-1.61544 101.953 1.50893 122.125 8.02937 140.717C19.1232 172.485 40.3146 200.228 67.3472 218.389C94.3798 236.549 127.118 245.03 158.995 242.155C163.116 241.771 167.78 240.813 169.772 236.98C171.81 233.051 169.727 227.972 166.512 225.049C163.297 222.126 159.177 220.593 155.554 218.293C141.472 209.38 136.491 188.872 141.789 172.485C155.916 128.546 207.944 131.469 243.263 131.421C282.25 131.421 326.851 122.125 330.202 72.0534C331.244 56.5766 326.263 40.7643 316.708 29.0249C306.339 16.3272 291.17 8.75649 275.684 5.06697C260.198 1.37745 244.169 1.18578 228.275 1.04204C189.334 0.658708 149.985 -1.30584 111.224 1.42536H111.179Z" fill="#ADD3FF"/>
<path d="M233.538 414.575C264.148 412.418 297.067 408.106 319.526 385.969C333.246 372.457 341.442 353.338 343.887 333.693C346.332 314.047 343.208 293.875 336.687 275.283C325.594 243.515 304.402 215.772 277.37 197.611C250.337 179.451 217.599 170.97 185.721 173.845C181.601 174.229 176.937 175.187 174.944 179.02C172.907 182.949 174.99 188.028 178.205 190.951C181.42 193.874 185.54 195.407 189.163 197.707C203.245 206.62 208.226 227.128 202.928 243.515C188.8 287.454 136.773 284.531 101.454 284.579C62.467 284.579 17.8654 293.875 14.5147 343.947C13.4732 359.423 18.4541 375.236 28.0084 386.975C38.3777 399.673 53.5467 407.244 69.0327 410.933C84.5188 414.623 100.548 414.814 116.442 414.958C155.383 415.341 194.732 417.306 233.493 414.575H233.538Z" fill="#ADD3FF"/>
</svg>
