<svg width="345" height="416" viewBox="0 0 345 416" fill="none" xmlns="http://www.w3.org/2000/svg">
<path d="M111.179 1.42536C80.5692 3.58158 47.65 7.89401 25.1908 30.0311C11.4707 43.5434 3.27488 62.6619 0.829722 82.3074C-1.61544 101.953 1.50893 122.125 8.02937 140.717C19.1232 172.485 40.3146 200.228 67.3472 218.389C94.3798 236.549 127.118 245.03 158.995 242.155C163.116 241.771 167.78 240.813 169.772 236.98C171.81 233.051 169.727 227.972 166.512 225.049C163.297 222.126 159.177 220.593 155.554 218.293C141.472 209.38 136.491 188.872 141.789 172.485C155.916 128.546 207.944 131.469 243.263 131.421C282.25 131.421 326.851 122.125 330.202 72.0534C331.244 56.5766 326.263 40.7643 316.708 29.0249C306.339 16.3272 291.17 8.75649 275.684 5.06697C260.198 1.37745 244.169 1.18578 228.275 1.04204C189.334 0.658708 149.985 -1.30584 111.224 1.42536H111.179Z" fill="#F8F6F4"/>
<path d="M233.538 414.576C264.148 412.419 297.067 408.107 319.526 385.97C333.246 372.458 341.442 353.339 343.887 333.694C346.332 314.048 343.208 293.875 336.687 275.284C325.594 243.516 304.402 215.773 277.37 197.612C250.337 179.452 217.599 170.971 185.721 173.846C181.601 174.23 176.937 175.188 174.944 179.021C172.907 182.95 174.99 188.029 178.205 190.952C181.42 193.875 185.54 195.408 189.163 197.708C203.245 206.621 208.226 227.129 202.928 243.516C188.8 287.455 136.773 284.532 101.454 284.58C62.467 284.58 17.8654 293.875 14.5147 343.948C13.4732 359.424 18.4541 375.237 28.0084 386.976C38.3777 399.674 53.5467 407.244 69.0327 410.934C84.5188 414.624 100.548 414.815 116.442 414.959C155.383 415.342 194.732 417.307 233.493 414.576H233.538Z" fill="#F8F6F4"/>
</svg>
