<svg width="293" height="70" viewBox="0 0 293 70" fill="none" xmlns="http://www.w3.org/2000/svg">
<rect x="18" y="7" width="56" height="56" fill="#6B8AAA"/>
<path d="M104.208 48.4482C102.592 48.4482 101.104 48.1771 99.7422 47.6348C98.3919 47.0924 97.2243 46.2845 96.2393 45.2109C95.2542 44.1374 94.4906 42.7982 93.9482 41.1934C93.4059 39.5885 93.1348 37.7458 93.1348 35.665C93.1348 33.5954 93.3949 31.7913 93.915 30.2529C94.4463 28.7145 95.2155 27.3753 96.2227 26.2354C97.2077 25.1286 98.3753 24.2874 99.7256 23.7119C101.076 23.1253 102.587 22.832 104.258 22.832C105.088 22.832 105.863 22.8929 106.582 23.0146C107.312 23.1364 107.988 23.2913 108.607 23.4795C109.139 23.6455 109.681 23.8558 110.234 24.1104C110.799 24.3538 111.352 24.625 111.895 24.9238V28.8916H111.629C111.341 28.626 110.97 28.305 110.517 27.9287C110.063 27.5524 109.509 27.1816 108.856 26.8164C108.226 26.4733 107.539 26.1911 106.798 25.9697C106.056 25.7484 105.199 25.6377 104.225 25.6377C103.173 25.6377 102.177 25.8535 101.236 26.2852C100.296 26.7168 99.471 27.3532 98.7627 28.1943C98.0654 29.0355 97.5231 30.0924 97.1357 31.3652C96.7484 32.638 96.5547 34.0713 96.5547 35.665C96.5547 37.3584 96.7594 38.8193 97.1689 40.0479C97.5785 41.2653 98.1374 42.2946 98.8457 43.1357C99.5319 43.9548 100.34 44.5745 101.27 44.9951C102.199 45.4046 103.184 45.6094 104.225 45.6094C105.176 45.6094 106.056 45.4932 106.864 45.2607C107.672 45.0283 108.392 44.735 109.022 44.3809C109.631 44.0378 110.157 43.6891 110.6 43.335C111.042 42.9697 111.391 42.6598 111.646 42.4053H111.895V46.3232C111.352 46.5778 110.838 46.8213 110.351 47.0537C109.875 47.2861 109.294 47.513 108.607 47.7344C107.888 47.9668 107.218 48.1439 106.599 48.2656C105.99 48.3874 105.193 48.4482 104.208 48.4482ZM129.974 38.7363C129.974 41.8574 129.221 44.2702 127.716 45.9746C126.211 47.668 124.207 48.5146 121.706 48.5146C119.127 48.5146 117.096 47.6403 115.613 45.8916C114.141 44.1318 113.405 41.7467 113.405 38.7363C113.405 35.6374 114.163 33.2301 115.68 31.5146C117.207 29.7992 119.216 28.9414 121.706 28.9414C124.207 28.9414 126.211 29.7992 127.716 31.5146C129.221 33.2191 129.974 35.6263 129.974 38.7363ZM126.753 38.7363C126.753 36.3346 126.316 34.5527 125.441 33.3906C124.567 32.2174 123.322 31.6309 121.706 31.6309C120.079 31.6309 118.823 32.2174 117.938 33.3906C117.063 34.5527 116.626 36.3346 116.626 38.7363C116.626 41.0605 117.063 42.8258 117.938 44.0322C118.823 45.2275 120.079 45.8252 121.706 45.8252C123.311 45.8252 124.55 45.2386 125.425 44.0654C126.31 42.8812 126.753 41.1048 126.753 38.7363ZM154.229 48V37.2754C154.229 36.4232 154.195 35.6374 154.129 34.918C154.062 34.1875 153.924 33.6175 153.714 33.208C153.493 32.7653 153.177 32.4388 152.768 32.2285C152.358 32.0182 151.805 31.9131 151.107 31.9131C150.465 31.9131 149.774 32.1123 149.032 32.5107C148.302 32.8981 147.544 33.4626 146.758 34.2041C146.769 34.3923 146.78 34.6191 146.791 34.8848C146.813 35.1393 146.824 35.4437 146.824 35.7979V48H143.703V37.2754C143.703 36.4232 143.67 35.6374 143.604 34.918C143.537 34.1875 143.399 33.6175 143.188 33.208C142.967 32.7653 142.652 32.4388 142.242 32.2285C141.833 32.0182 141.279 31.9131 140.582 31.9131C139.907 31.9131 139.199 32.1234 138.457 32.5439C137.715 32.9645 136.996 33.5013 136.299 34.1543V48H133.178V29.4561H136.299V31.5146C137.118 30.6956 137.926 30.0648 138.723 29.6221C139.531 29.1683 140.416 28.9414 141.379 28.9414C142.475 28.9414 143.443 29.1904 144.284 29.6885C145.136 30.1865 145.784 31.0055 146.227 32.1455C147.167 31.0941 148.086 30.2972 148.982 29.7549C149.879 29.2126 150.853 28.9414 151.904 28.9414C152.701 28.9414 153.426 29.0687 154.079 29.3232C154.732 29.5667 155.302 29.9652 155.789 30.5186C156.287 31.083 156.669 31.7858 156.935 32.627C157.211 33.4681 157.35 34.5251 157.35 35.7979V48H154.229ZM174.067 38.6699C174.067 36.4564 173.73 34.7796 173.055 33.6396C172.38 32.4886 171.295 31.9131 169.801 31.9131C168.949 31.9131 168.085 32.1123 167.211 32.5107C166.348 32.9092 165.562 33.4128 164.854 34.0215V44.6465C165.639 45.0339 166.337 45.3105 166.945 45.4766C167.554 45.6315 168.224 45.709 168.954 45.709C170.548 45.709 171.799 45.1445 172.706 44.0156C173.614 42.8867 174.067 41.1048 174.067 38.6699ZM177.288 38.4209C177.288 41.4535 176.552 43.8939 175.08 45.7422C173.608 47.5905 171.765 48.5146 169.552 48.5146C168.545 48.5146 167.681 48.3874 166.962 48.1328C166.254 47.8893 165.551 47.5573 164.854 47.1367L164.654 48H161.732V22.168H164.854V31.3984C165.639 30.6901 166.492 30.1035 167.41 29.6387C168.329 29.1738 169.369 28.9414 170.531 28.9414C172.623 28.9414 174.272 29.7826 175.479 31.4648C176.685 33.1361 177.288 35.4548 177.288 38.4209ZM183.713 48H180.592V29.4561H183.713V48ZM183.929 26.3516H180.376V23.1143H183.929V26.3516ZM202.871 48H199.75V37.4414C199.75 36.5892 199.706 35.7979 199.617 35.0674C199.54 34.3258 199.385 33.7337 199.152 33.291C198.898 32.8262 198.544 32.4831 198.09 32.2617C197.636 32.0293 197.016 31.9131 196.23 31.9131C195.456 31.9131 194.653 32.1234 193.823 32.5439C193.004 32.9535 192.202 33.4902 191.416 34.1543V48H188.295V29.4561H191.416V31.5146C192.346 30.6846 193.264 30.0482 194.172 29.6055C195.079 29.1628 196.037 28.9414 197.044 28.9414C198.87 28.9414 200.298 29.5446 201.327 30.751C202.356 31.9463 202.871 33.6839 202.871 35.9639V48ZM217.613 43.4346V38.2881C216.872 38.3545 215.931 38.4486 214.791 38.5703C213.662 38.681 212.749 38.8415 212.052 39.0518C211.222 39.3063 210.535 39.6992 209.993 40.2305C209.451 40.7507 209.18 41.4811 209.18 42.4219C209.18 43.4844 209.479 44.2868 210.076 44.8291C210.674 45.3714 211.548 45.6426 212.699 45.6426C213.684 45.6426 214.575 45.4323 215.372 45.0117C216.169 44.5801 216.916 44.0544 217.613 43.4346ZM217.613 46.0244C217.359 46.2126 217.016 46.4782 216.584 46.8213C216.163 47.1533 215.754 47.4189 215.355 47.6182C214.802 47.9059 214.265 48.1273 213.745 48.2822C213.236 48.4372 212.517 48.5146 211.587 48.5146C210.823 48.5146 210.098 48.3708 209.412 48.083C208.726 47.7952 208.123 47.3913 207.603 46.8711C207.104 46.362 206.706 45.7367 206.407 44.9951C206.108 44.2425 205.959 43.4512 205.959 42.6211C205.959 41.3372 206.23 40.2471 206.772 39.3506C207.315 38.443 208.173 37.7236 209.346 37.1924C210.386 36.7165 211.615 36.39 213.031 36.2129C214.448 36.0247 215.975 35.8864 217.613 35.7979V35.2002C217.613 34.4697 217.503 33.8831 217.281 33.4404C217.06 32.9867 216.75 32.638 216.352 32.3945C215.953 32.14 215.466 31.974 214.891 31.8965C214.315 31.8079 213.723 31.7637 213.114 31.7637C212.395 31.7637 211.548 31.8743 210.574 32.0957C209.6 32.306 208.626 32.6159 207.652 33.0254H207.47V29.8545C208.045 29.6885 208.87 29.5059 209.943 29.3066C211.017 29.1074 212.079 29.0078 213.131 29.0078C214.404 29.0078 215.477 29.1074 216.352 29.3066C217.226 29.5059 218.012 29.8656 218.709 30.3857C219.384 30.8949 219.888 31.5534 220.22 32.3613C220.552 33.1693 220.718 34.1543 220.718 35.3164V48H217.613V46.0244ZM230.729 48.3652C229.024 48.3652 227.696 47.8838 226.744 46.9209C225.792 45.9469 225.316 44.4141 225.316 42.3223V32.0459H223.208V29.4561H225.316V24.127H228.438V29.4561H234.182V32.0459H228.438V40.8613C228.438 41.8021 228.454 42.527 228.487 43.0361C228.521 43.5452 228.648 44.0212 228.869 44.4639C229.057 44.8512 229.362 45.1445 229.782 45.3438C230.203 45.5319 230.773 45.626 231.492 45.626C232.001 45.626 232.494 45.554 232.97 45.4102C233.446 45.2552 233.789 45.1279 233.999 45.0283H234.182V47.834C233.595 48 232.997 48.1273 232.389 48.2158C231.791 48.3154 231.238 48.3652 230.729 48.3652ZM251.763 38.7363C251.763 41.8574 251.01 44.2702 249.505 45.9746C248 47.668 245.996 48.5146 243.495 48.5146C240.916 48.5146 238.885 47.6403 237.402 45.8916C235.93 44.1318 235.194 41.7467 235.194 38.7363C235.194 35.6374 235.952 33.2301 237.469 31.5146C238.996 29.7992 241.005 28.9414 243.495 28.9414C245.996 28.9414 248 29.7992 249.505 31.5146C251.01 33.2191 251.763 35.6263 251.763 38.7363ZM248.542 38.7363C248.542 36.3346 248.105 34.5527 247.23 33.3906C246.356 32.2174 245.111 31.6309 243.495 31.6309C241.868 31.6309 240.612 32.2174 239.727 33.3906C238.852 34.5527 238.415 36.3346 238.415 38.7363C238.415 41.0605 238.852 42.8258 239.727 44.0322C240.612 45.2275 241.868 45.8252 243.495 45.8252C245.1 45.8252 246.34 45.2386 247.214 44.0654C248.099 42.8812 248.542 41.1048 248.542 38.7363ZM264.795 32.8096H264.629C264.396 32.7432 264.147 32.7044 263.882 32.6934C263.627 32.6712 263.317 32.6602 262.952 32.6602C262.111 32.6602 261.275 32.8428 260.445 33.208C259.615 33.5732 258.829 34.1156 258.088 34.835V48H254.967V29.4561H258.088V32.2119C259.228 31.2048 260.218 30.4964 261.06 30.0869C261.912 29.6663 262.736 29.4561 263.533 29.4561C263.854 29.4561 264.092 29.4671 264.247 29.4893C264.413 29.5003 264.596 29.5225 264.795 29.5557V32.8096Z" fill="#6B8AAA"/>
<path d="M58.9551 20.0098L48.1484 37.8418V52H43.8945V38.293L33.0879 20.0098H37.8145L46.0645 34.125L54.4434 20.0098H58.9551Z" fill="#F8F6F2"/>
</svg>
