<svg width="109" height="107" viewBox="0 0 109 107" fill="none" xmlns="http://www.w3.org/2000/svg">
<path d="M44.2123 23.1877C38.6473 23.4722 32.663 24.0408 28.5798 26.9602C26.0852 28.7425 24.5952 31.2638 24.1508 33.8547C23.7064 36.4455 24.2743 39.1059 25.4596 41.5577C27.4765 45.7473 31.3293 49.4064 36.2436 51.8012C41.158 54.196 47.1103 55.3147 52.9057 54.9356C53.6548 54.8851 54.5026 54.7586 54.865 54.253C55.2351 53.735 54.8567 53.0654 54.2727 52.6798C51.8369 51.0728 44.0162 48.9852 44.6679 45.1479C45.0547 42.8713 47.4156 41.8887 49.473 41.4413C57.9169 39.6055 66.6941 41.1371 75.2063 39.7796C79.2474 39.135 83.6253 36.9042 84.0316 32.5025C84.2211 30.4612 83.3151 28.3759 81.5786 26.8277C79.6935 25.1529 76.9357 24.1549 74.1203 23.6683C71.3049 23.1817 68.3908 23.1562 65.5011 23.1378C58.4213 23.0873 51.2672 22.8276 44.2123 23.1877Z" fill="#6B8AAA"/>
<path d="M65.5678 88.9995C69.5602 88.851 73.5929 88.431 77.3904 87.0016C83.6201 84.6567 88.9355 77.6047 88.1204 69.1691C87.2482 60.146 80.744 52.6503 74.4864 48.8183C71.1601 46.7812 67.548 45.4688 63.8764 44.8064C61.9825 44.4648 54.6572 42.8019 53.6318 45.5728C53.0716 47.0877 54.6655 47.8832 55.6001 47.9444C59.3351 48.188 62.7257 49.4308 64.6357 53.779C69.5602 64.9908 46.6025 63.06 42.6998 62.7838C38.3142 62.4737 33.6286 61.2498 29.2893 61.9604C24.7266 62.7077 22.3615 65.8475 21.5238 71.2568C21.244 73.0646 20.966 74.8903 21.0034 76.7308C21.0937 81.2085 23.886 84.7327 27.0495 86.512C32.4956 89.5746 38.894 89.0583 44.7358 89.1997C50.3779 89.3364 56.0207 89.1552 61.6622 89.0845C62.9526 89.0684 64.2578 89.0488 65.5666 89.0001L65.5678 88.9995Z" fill="#6B8AAA"/>
</svg>
