<svg width="48" height="48" viewBox="0 0 48 48" fill="none" xmlns="http://www.w3.org/2000/svg">
<rect width="48" height="48" fill="#F8F6F4"/>
<g filter="url(#filter0_d_5722_5173)">
<path d="M19.2017 7.79152C16.8001 7.9607 14.2172 8.29906 12.455 10.036C11.3785 11.0961 10.7355 12.5962 10.5436 14.1376C10.3518 15.679 10.5969 17.2618 11.1085 18.7205C11.9789 21.213 13.6416 23.3898 15.7626 24.8147C17.8836 26.2395 20.4523 26.905 22.9535 26.6794C23.2768 26.6493 23.6427 26.5741 23.799 26.2734C23.9589 25.9651 23.7955 25.5666 23.5432 25.3372C23.291 25.1079 22.9677 24.9876 22.6834 24.8071C21.5785 24.1079 21.1877 22.4988 21.6034 21.213C22.7119 17.7656 26.794 17.9949 29.5652 17.9911C32.6241 17.9911 36.1236 17.2618 36.3865 13.3331C36.4682 12.1187 36.0774 10.8781 35.3278 9.95701C34.5142 8.96074 33.324 8.36673 32.109 8.07725C30.8939 7.78776 29.6362 7.77273 28.3892 7.76145C25.3338 7.73137 22.2465 7.57723 19.2053 7.79152H19.2017Z" fill="#ADD3FF"/>
<path d="M28.8022 40.2085C31.2039 40.0393 33.7867 39.7009 35.5489 37.964C36.6254 36.9039 37.2684 35.4038 37.4603 33.8624C37.6521 32.321 37.407 30.7382 36.8954 29.2795C36.025 26.787 34.3623 24.6102 32.2413 23.1853C30.1203 21.7605 27.5516 21.095 25.0504 21.3206C24.7271 21.3507 24.3612 21.4259 24.2049 21.7266C24.045 22.0349 24.2084 22.4334 24.4607 22.6628C24.7129 22.8921 25.0362 23.0124 25.3205 23.1929C26.4254 23.8921 26.8162 25.5012 26.4005 26.787C25.292 30.2344 21.2099 30.0051 18.4387 30.0089C15.3798 30.0089 11.8803 30.7382 11.6174 34.6669C11.5357 35.8813 11.9265 37.1219 12.6761 38.043C13.4897 39.0393 14.6799 39.6333 15.8949 39.9228C17.11 40.2122 18.3677 40.2273 19.6147 40.2386C22.6701 40.2686 25.7574 40.4228 28.7986 40.2085H28.8022Z" fill="#ADD3FF"/>
</g>
<defs>
<filter id="filter0_d_5722_5173" x="10.2285" y="7.67969" width="27.5469" height="33.3906" filterUnits="userSpaceOnUse" color-interpolation-filters="sRGB">
<feFlood flood-opacity="0" result="BackgroundImageFix"/>
<feColorMatrix in="SourceAlpha" type="matrix" values="0 0 0 0 0 0 0 0 0 0 0 0 0 0 0 0 0 0 127 0" result="hardAlpha"/>
<feOffset dy="0.5"/>
<feGaussianBlur stdDeviation="0.125"/>
<feComposite in2="hardAlpha" operator="out"/>
<feColorMatrix type="matrix" values="0 0 0 0 0 0 0 0 0 0 0 0 0 0 0 0 0 0 0.25 0"/>
<feBlend mode="normal" in2="BackgroundImageFix" result="effect1_dropShadow_5722_5173"/>
<feBlend mode="normal" in="SourceGraphic" in2="effect1_dropShadow_5722_5173" result="shape"/>
</filter>
</defs>
</svg>
